<mxfile host="app.diagrams.net" modified="2021-02-22T07:44:33.507Z" agent="5.0 (Windows NT 10.0; Win64; x64) AppleWebKit/537.36 (KHTML, like Gecko) Chrome/88.0.4324.150 Safari/537.36" etag="Z9XLjrKxA6u72XuDvUzv" version="13.7.1" type="github">
  <diagram id="T8ZMuuTIdVA--agN4vgR" name="Page-1">
    <mxGraphModel dx="2272" dy="762" grid="1" gridSize="10" guides="1" tooltips="1" connect="1" arrows="1" fold="1" page="1" pageScale="1" pageWidth="850" pageHeight="1100" math="0" shadow="0">
      <root>
        <mxCell id="0" />
        <mxCell id="1" parent="0" />
        <mxCell id="zkHlpnZEqubZFANhWp0h-53" value="" style="rounded=0;whiteSpace=wrap;html=1;fillColor=none;" vertex="1" parent="1">
          <mxGeometry x="-320" y="10" width="950" height="870" as="geometry" />
        </mxCell>
        <mxCell id="zkHlpnZEqubZFANhWp0h-41" value="" style="rounded=1;whiteSpace=wrap;html=1;fillColor=none;" vertex="1" parent="1">
          <mxGeometry x="970" y="100" width="800" height="260" as="geometry" />
        </mxCell>
        <mxCell id="zkHlpnZEqubZFANhWp0h-45" value="" style="rounded=1;whiteSpace=wrap;html=1;dashed=1;fillColor=none;" vertex="1" parent="1">
          <mxGeometry x="990" y="160" width="730" height="140" as="geometry" />
        </mxCell>
        <mxCell id="zkHlpnZEqubZFANhWp0h-10" value="" style="rounded=1;whiteSpace=wrap;html=1;dashed=1;fillColor=none;" vertex="1" parent="1">
          <mxGeometry x="-211" y="164" width="800" height="120" as="geometry" />
        </mxCell>
        <mxCell id="zkHlpnZEqubZFANhWp0h-38" style="edgeStyle=orthogonalEdgeStyle;rounded=0;orthogonalLoop=1;jettySize=auto;html=1;entryX=0.5;entryY=0;entryDx=0;entryDy=0;startArrow=classic;startFill=1;" edge="1" parent="1" source="zkHlpnZEqubZFANhWp0h-35" target="zkHlpnZEqubZFANhWp0h-4">
          <mxGeometry relative="1" as="geometry" />
        </mxCell>
        <mxCell id="zkHlpnZEqubZFANhWp0h-35" value="" style="rounded=1;whiteSpace=wrap;html=1;dashed=1;fillColor=none;" vertex="1" parent="1">
          <mxGeometry x="19" y="20" width="240" height="110" as="geometry" />
        </mxCell>
        <mxCell id="zkHlpnZEqubZFANhWp0h-27" value="" style="rounded=1;whiteSpace=wrap;html=1;dashed=1;fillColor=none;" vertex="1" parent="1">
          <mxGeometry x="210" y="744" width="240" height="110" as="geometry" />
        </mxCell>
        <mxCell id="zkHlpnZEqubZFANhWp0h-16" value="" style="rounded=1;whiteSpace=wrap;html=1;dashed=1;fillColor=none;" vertex="1" parent="1">
          <mxGeometry x="-210" y="524" width="800" height="120" as="geometry" />
        </mxCell>
        <mxCell id="zkHlpnZEqubZFANhWp0h-12" value="" style="rounded=1;whiteSpace=wrap;html=1;dashed=1;fillColor=none;" vertex="1" parent="1">
          <mxGeometry x="-210" y="324" width="800" height="120" as="geometry" />
        </mxCell>
        <mxCell id="zkHlpnZEqubZFANhWp0h-1" value="" style="aspect=fixed;pointerEvents=1;shadow=0;dashed=0;html=1;strokeColor=none;labelPosition=center;verticalLabelPosition=bottom;verticalAlign=top;align=center;fillColor=#00188D;shape=mxgraph.mscae.enterprise.shared_folder" vertex="1" parent="1">
          <mxGeometry x="64" y="50" width="43" height="50" as="geometry" />
        </mxCell>
        <mxCell id="zkHlpnZEqubZFANhWp0h-2" value="" style="aspect=fixed;pointerEvents=1;shadow=0;dashed=0;html=1;strokeColor=none;labelPosition=center;verticalLabelPosition=bottom;verticalAlign=top;align=center;fillColor=#00188D;shape=mxgraph.mscae.enterprise.shared_folder" vertex="1" parent="1">
          <mxGeometry x="164" y="50" width="43" height="50" as="geometry" />
        </mxCell>
        <mxCell id="zkHlpnZEqubZFANhWp0h-7" style="edgeStyle=orthogonalEdgeStyle;rounded=0;orthogonalLoop=1;jettySize=auto;html=1;startArrow=classic;startFill=1;" edge="1" parent="1" source="zkHlpnZEqubZFANhWp0h-4" target="zkHlpnZEqubZFANhWp0h-6">
          <mxGeometry relative="1" as="geometry" />
        </mxCell>
        <mxCell id="zkHlpnZEqubZFANhWp0h-61" style="edgeStyle=orthogonalEdgeStyle;rounded=0;orthogonalLoop=1;jettySize=auto;html=1;entryX=0;entryY=0.5;entryDx=0;entryDy=0;entryPerimeter=0;startArrow=none;startFill=0;" edge="1" parent="1" source="zkHlpnZEqubZFANhWp0h-4" target="zkHlpnZEqubZFANhWp0h-58">
          <mxGeometry relative="1" as="geometry" />
        </mxCell>
        <mxCell id="zkHlpnZEqubZFANhWp0h-4" value="Experience API" style="shape=process;whiteSpace=wrap;html=1;backgroundOutline=1;" vertex="1" parent="1">
          <mxGeometry x="79" y="204" width="120" height="60" as="geometry" />
        </mxCell>
        <mxCell id="zkHlpnZEqubZFANhWp0h-15" style="edgeStyle=orthogonalEdgeStyle;rounded=0;orthogonalLoop=1;jettySize=auto;html=1;entryX=0;entryY=0.5;entryDx=0;entryDy=0;startArrow=classic;startFill=1;" edge="1" parent="1" source="zkHlpnZEqubZFANhWp0h-6" target="zkHlpnZEqubZFANhWp0h-14">
          <mxGeometry relative="1" as="geometry" />
        </mxCell>
        <mxCell id="zkHlpnZEqubZFANhWp0h-20" style="edgeStyle=orthogonalEdgeStyle;rounded=0;orthogonalLoop=1;jettySize=auto;html=1;startArrow=classic;startFill=1;" edge="1" parent="1">
          <mxGeometry relative="1" as="geometry">
            <mxPoint x="139" y="425" as="sourcePoint" />
            <mxPoint x="9" y="557" as="targetPoint" />
            <Array as="points">
              <mxPoint x="139" y="487" />
              <mxPoint x="9" y="487" />
            </Array>
          </mxGeometry>
        </mxCell>
        <mxCell id="zkHlpnZEqubZFANhWp0h-22" style="edgeStyle=orthogonalEdgeStyle;rounded=0;orthogonalLoop=1;jettySize=auto;html=1;entryX=0.5;entryY=0;entryDx=0;entryDy=0;startArrow=classic;startFill=1;" edge="1" parent="1" target="zkHlpnZEqubZFANhWp0h-19">
          <mxGeometry relative="1" as="geometry">
            <mxPoint x="140" y="416" as="sourcePoint" />
            <mxPoint x="302.96000000000004" y="554" as="targetPoint" />
            <Array as="points">
              <mxPoint x="140" y="488" />
              <mxPoint x="330" y="488" />
            </Array>
          </mxGeometry>
        </mxCell>
        <mxCell id="zkHlpnZEqubZFANhWp0h-6" value="Process API" style="shape=process;whiteSpace=wrap;html=1;backgroundOutline=1;" vertex="1" parent="1">
          <mxGeometry x="79" y="362" width="120" height="60" as="geometry" />
        </mxCell>
        <mxCell id="zkHlpnZEqubZFANhWp0h-11" value="Experience API layer" style="text;html=1;strokeColor=none;fillColor=none;align=center;verticalAlign=middle;whiteSpace=wrap;rounded=0;" vertex="1" parent="1">
          <mxGeometry x="-200" y="164" width="140" height="20" as="geometry" />
        </mxCell>
        <mxCell id="zkHlpnZEqubZFANhWp0h-13" value="Process API layer" style="text;html=1;strokeColor=none;fillColor=none;align=center;verticalAlign=middle;whiteSpace=wrap;rounded=0;" vertex="1" parent="1">
          <mxGeometry x="-200" y="324" width="140" height="20" as="geometry" />
        </mxCell>
        <mxCell id="zkHlpnZEqubZFANhWp0h-14" value="Process API" style="shape=process;whiteSpace=wrap;html=1;backgroundOutline=1;" vertex="1" parent="1">
          <mxGeometry x="250" y="362" width="120" height="60" as="geometry" />
        </mxCell>
        <mxCell id="zkHlpnZEqubZFANhWp0h-17" value="Sytem API layer" style="text;html=1;strokeColor=none;fillColor=none;align=center;verticalAlign=middle;whiteSpace=wrap;rounded=0;" vertex="1" parent="1">
          <mxGeometry x="-200" y="524" width="140" height="20" as="geometry" />
        </mxCell>
        <mxCell id="zkHlpnZEqubZFANhWp0h-34" style="edgeStyle=orthogonalEdgeStyle;rounded=0;orthogonalLoop=1;jettySize=auto;html=1;entryX=0.75;entryY=0;entryDx=0;entryDy=0;startArrow=classic;startFill=1;" edge="1" parent="1" source="zkHlpnZEqubZFANhWp0h-18" target="zkHlpnZEqubZFANhWp0h-33">
          <mxGeometry relative="1" as="geometry" />
        </mxCell>
        <mxCell id="zkHlpnZEqubZFANhWp0h-18" value="System API" style="shape=process;whiteSpace=wrap;html=1;backgroundOutline=1;" vertex="1" parent="1">
          <mxGeometry x="-51" y="554" width="120" height="60" as="geometry" />
        </mxCell>
        <mxCell id="zkHlpnZEqubZFANhWp0h-29" style="edgeStyle=orthogonalEdgeStyle;rounded=0;orthogonalLoop=1;jettySize=auto;html=1;startArrow=classic;startFill=1;" edge="1" parent="1" source="zkHlpnZEqubZFANhWp0h-19" target="zkHlpnZEqubZFANhWp0h-27">
          <mxGeometry relative="1" as="geometry" />
        </mxCell>
        <mxCell id="zkHlpnZEqubZFANhWp0h-19" value="System API" style="shape=process;whiteSpace=wrap;html=1;backgroundOutline=1;" vertex="1" parent="1">
          <mxGeometry x="270" y="554" width="120" height="60" as="geometry" />
        </mxCell>
        <mxCell id="zkHlpnZEqubZFANhWp0h-24" value="" style="aspect=fixed;pointerEvents=1;shadow=0;dashed=0;html=1;strokeColor=none;labelPosition=center;verticalLabelPosition=bottom;verticalAlign=top;align=center;fillColor=#00188D;shape=mxgraph.mscae.enterprise.shared_folder" vertex="1" parent="1">
          <mxGeometry x="260" y="774" width="43" height="50" as="geometry" />
        </mxCell>
        <mxCell id="zkHlpnZEqubZFANhWp0h-25" value="" style="aspect=fixed;pointerEvents=1;shadow=0;dashed=0;html=1;strokeColor=none;labelPosition=center;verticalLabelPosition=bottom;verticalAlign=top;align=center;fillColor=#00188D;shape=mxgraph.mscae.enterprise.shared_folder" vertex="1" parent="1">
          <mxGeometry x="360" y="774" width="43" height="50" as="geometry" />
        </mxCell>
        <mxCell id="zkHlpnZEqubZFANhWp0h-26" value="On-prem LAN Share" style="text;html=1;strokeColor=none;fillColor=none;align=left;verticalAlign=middle;whiteSpace=wrap;rounded=0;" vertex="1" parent="1">
          <mxGeometry x="220" y="744" width="140" height="20" as="geometry" />
        </mxCell>
        <mxCell id="zkHlpnZEqubZFANhWp0h-30" value="" style="aspect=fixed;html=1;points=[];align=center;image;fontSize=12;image=img/lib/mscae/SAP_HANA_on_Azure.svg;rounded=1;dashed=1;fillColor=none;" vertex="1" parent="1">
          <mxGeometry x="-56" y="774" width="50" height="25" as="geometry" />
        </mxCell>
        <mxCell id="zkHlpnZEqubZFANhWp0h-31" value="" style="aspect=fixed;html=1;points=[];align=center;image;fontSize=12;image=img/lib/mscae/SAP_HANA_on_Azure.svg;rounded=1;dashed=1;fillColor=none;" vertex="1" parent="1">
          <mxGeometry x="24" y="774" width="50" height="25" as="geometry" />
        </mxCell>
        <mxCell id="zkHlpnZEqubZFANhWp0h-32" value="" style="rounded=1;whiteSpace=wrap;html=1;dashed=1;fillColor=none;" vertex="1" parent="1">
          <mxGeometry x="-106" y="744" width="220" height="80" as="geometry" />
        </mxCell>
        <mxCell id="zkHlpnZEqubZFANhWp0h-33" value="SAP System" style="text;html=1;strokeColor=none;fillColor=none;align=left;verticalAlign=middle;whiteSpace=wrap;rounded=0;" vertex="1" parent="1">
          <mxGeometry x="-96" y="744" width="140" height="20" as="geometry" />
        </mxCell>
        <mxCell id="zkHlpnZEqubZFANhWp0h-36" value="On-prem LAN Share" style="text;html=1;strokeColor=none;fillColor=none;align=left;verticalAlign=middle;whiteSpace=wrap;rounded=0;" vertex="1" parent="1">
          <mxGeometry x="29" y="20" width="140" height="20" as="geometry" />
        </mxCell>
        <mxCell id="zkHlpnZEqubZFANhWp0h-48" style="edgeStyle=orthogonalEdgeStyle;rounded=0;orthogonalLoop=1;jettySize=auto;html=1;entryX=0;entryY=0.5;entryDx=0;entryDy=0;startArrow=classic;startFill=1;" edge="1" parent="1" source="zkHlpnZEqubZFANhWp0h-39" target="zkHlpnZEqubZFANhWp0h-47">
          <mxGeometry relative="1" as="geometry" />
        </mxCell>
        <mxCell id="zkHlpnZEqubZFANhWp0h-62" style="edgeStyle=orthogonalEdgeStyle;rounded=0;orthogonalLoop=1;jettySize=auto;html=1;entryX=1;entryY=0.51;entryDx=0;entryDy=0;entryPerimeter=0;startArrow=classic;startFill=1;" edge="1" parent="1" source="zkHlpnZEqubZFANhWp0h-39" target="zkHlpnZEqubZFANhWp0h-58">
          <mxGeometry relative="1" as="geometry" />
        </mxCell>
        <mxCell id="zkHlpnZEqubZFANhWp0h-39" value="Process API&lt;br&gt;Receiving the internal request before converting to generic format of ticket API" style="shape=process;whiteSpace=wrap;html=1;backgroundOutline=1;align=center;" vertex="1" parent="1">
          <mxGeometry x="1070" y="194" width="200" height="80" as="geometry" />
        </mxCell>
        <mxCell id="zkHlpnZEqubZFANhWp0h-42" value="On-prem Reusable ticket API" style="text;html=1;strokeColor=none;fillColor=none;align=left;verticalAlign=middle;whiteSpace=wrap;rounded=0;dashed=1;" vertex="1" parent="1">
          <mxGeometry x="1000" y="100" width="170" height="20" as="geometry" />
        </mxCell>
        <mxCell id="zkHlpnZEqubZFANhWp0h-46" value="Process API layer" style="text;html=1;strokeColor=none;fillColor=none;align=center;verticalAlign=middle;whiteSpace=wrap;rounded=0;" vertex="1" parent="1">
          <mxGeometry x="1000" y="160" width="140" height="20" as="geometry" />
        </mxCell>
        <mxCell id="zkHlpnZEqubZFANhWp0h-47" value="Ticket API&lt;br&gt;Responsible for creating actual ticket" style="shape=process;whiteSpace=wrap;html=1;backgroundOutline=1;align=center;" vertex="1" parent="1">
          <mxGeometry x="1460" y="194" width="200" height="80" as="geometry" />
        </mxCell>
        <mxCell id="zkHlpnZEqubZFANhWp0h-54" value="On-prem" style="text;html=1;strokeColor=none;fillColor=none;align=center;verticalAlign=middle;whiteSpace=wrap;rounded=0;" vertex="1" parent="1">
          <mxGeometry x="-320" y="10" width="60" height="20" as="geometry" />
        </mxCell>
        <mxCell id="zkHlpnZEqubZFANhWp0h-56" value="" style="rounded=1;whiteSpace=wrap;html=1;dashed=1;fillColor=none;" vertex="1" parent="1">
          <mxGeometry x="670" y="175" width="210" height="113" as="geometry" />
        </mxCell>
        <mxCell id="zkHlpnZEqubZFANhWp0h-57" value="Anypoint MQ" style="text;html=1;strokeColor=none;fillColor=none;align=center;verticalAlign=middle;whiteSpace=wrap;rounded=0;" vertex="1" parent="1">
          <mxGeometry x="729" y="262" width="90" height="20" as="geometry" />
        </mxCell>
        <mxCell id="zkHlpnZEqubZFANhWp0h-58" value="" style="aspect=fixed;pointerEvents=1;shadow=0;dashed=0;html=1;strokeColor=none;labelPosition=center;verticalLabelPosition=bottom;verticalAlign=top;align=center;fillColor=#00188D;shape=mxgraph.azure.queue_generic;rounded=1;" vertex="1" parent="1">
          <mxGeometry x="700" y="211" width="150" height="45" as="geometry" />
        </mxCell>
        <mxCell id="zkHlpnZEqubZFANhWp0h-59" value="Mulesoft cloud" style="text;html=1;strokeColor=none;fillColor=none;align=center;verticalAlign=middle;whiteSpace=wrap;rounded=0;" vertex="1" parent="1">
          <mxGeometry x="680" y="175" width="90" height="20" as="geometry" />
        </mxCell>
        <mxCell id="zkHlpnZEqubZFANhWp0h-63" value="RFC" style="text;html=1;strokeColor=none;fillColor=none;align=center;verticalAlign=middle;whiteSpace=wrap;rounded=0;" vertex="1" parent="1">
          <mxGeometry x="9" y="670" width="60" height="20" as="geometry" />
        </mxCell>
        <mxCell id="zkHlpnZEqubZFANhWp0h-64" value="SAMBA" style="text;html=1;strokeColor=none;fillColor=none;align=center;verticalAlign=middle;whiteSpace=wrap;rounded=0;" vertex="1" parent="1">
          <mxGeometry x="140" y="174" width="60" height="20" as="geometry" />
        </mxCell>
        <mxCell id="zkHlpnZEqubZFANhWp0h-65" value="SAMBA" style="text;html=1;strokeColor=none;fillColor=none;align=center;verticalAlign=middle;whiteSpace=wrap;rounded=0;" vertex="1" parent="1">
          <mxGeometry x="343" y="670" width="60" height="20" as="geometry" />
        </mxCell>
      </root>
    </mxGraphModel>
  </diagram>
</mxfile>
